<?xml version="1.0" encoding="UTF-8" standalone="no"?>
<!DOCTYPE svg PUBLIC "-//W3C//DTD SVG 1.1//EN" "http://www.w3.org/Graphics/SVG/1.1/DTD/svg11.dtd">
<svg xmlns="http://www.w3.org/2000/svg" xmlns:xlink="http://www.w3.org/1999/xlink" version="1.1" width="212.59845pt" height="106.299228pt" viewBox="0 0 212.59845 106.299228">
<g enable-background="new">
<g>
<path d="M 84.043 52.875 L 84.043 48.516 L 87.242 48.516 C 90.48 48.516 92.223 46.355 92.223 43.781 C 92.223 41.188 90.48 39.027 87.242 39.027 L 79.852 39.027 L 79.852 52.875 Z M 86.703 44.859 L 84.043 44.859 L 84.043 42.68 L 86.703 42.68 C 87.406 42.68 87.969 43.035 87.969 43.781 C 87.969 44.508 87.406 44.859 86.703 44.859 Z M 97.246 52.875 L 97.246 46.73 C 97.664 46.23 98.68 46.023 99.469 46.023 C 99.82 46.023 100.133 46.066 100.32 46.129 L 100.32 42.555 C 99.18 42.555 97.871 43.223 97.246 43.949 L 97.246 42.848 L 93.512 42.848 L 93.512 52.875 Z M 106.508 53.121 C 108 53.121 109.785 52.727 110.781 51.879 L 109.246 49.574 C 108.75 50.008 107.504 50.277 106.941 50.277 C 105.719 50.277 104.992 49.656 104.781 49.012 L 111.594 49.012 L 111.594 48.246 C 111.594 44.715 109.328 42.598 106.383 42.598 C 103.145 42.598 100.922 44.945 100.922 47.852 C 100.922 51.152 103.371 53.121 106.508 53.121 Z M 108.043 46.645 L 104.742 46.645 C 104.867 46.188 105.238 45.441 106.383 45.441 C 107.586 45.441 107.938 46.211 108.043 46.645 Z M 129.426 52.875 L 129.426 45.609 C 129.426 43.531 128.18 42.598 126.332 42.598 C 124.711 42.598 123.402 43.492 122.824 44.363 C 122.367 43.117 121.348 42.598 119.938 42.598 C 118.316 42.598 117.051 43.43 116.617 43.988 L 116.617 42.848 L 112.879 42.848 L 112.879 52.875 L 116.617 52.875 L 116.617 46.688 C 116.863 46.398 117.32 45.898 118.133 45.898 C 118.98 45.898 119.273 46.418 119.273 47.02 L 119.273 52.875 L 123.008 52.875 L 123.008 46.688 C 123.258 46.398 123.715 45.898 124.547 45.898 C 125.375 45.898 125.688 46.418 125.688 47.02 L 125.688 52.875 Z M 133.367 42.121 C 134.531 42.121 135.465 41.188 135.465 40.023 C 135.465 38.863 134.531 37.926 133.367 37.926 C 132.207 37.926 131.273 38.863 131.273 40.023 C 131.273 41.188 132.207 42.121 133.367 42.121 Z M 135.238 52.875 L 135.238 42.848 L 131.5 42.848 L 131.5 52.875 Z M 147.816 52.875 L 147.816 42.848 L 144.082 42.848 L 144.082 49.035 C 143.77 49.387 143.332 49.82 142.504 49.82 C 141.59 49.82 141.051 49.43 141.051 48.41 L 141.051 42.848 L 137.312 42.848 L 137.312 50.008 C 137.312 51.73 138.309 53.121 140.633 53.121 C 142.398 53.121 143.5 52.395 144.082 51.754 L 144.082 52.875 Z M 166.438 52.875 L 166.438 45.609 C 166.438 43.531 165.191 42.598 163.344 42.598 C 161.727 42.598 160.418 43.492 159.836 44.363 C 159.379 43.117 158.363 42.598 156.953 42.598 C 155.332 42.598 154.066 43.43 153.629 43.988 L 153.629 42.848 L 149.895 42.848 L 149.895 52.875 L 153.629 52.875 L 153.629 46.688 C 153.879 46.398 154.336 45.898 155.145 45.898 C 155.996 45.898 156.285 46.418 156.285 47.02 L 156.285 52.875 L 160.023 52.875 L 160.023 46.688 C 160.273 46.398 160.73 45.898 161.559 45.898 C 162.391 45.898 162.703 46.418 162.703 47.02 L 162.703 52.875 Z M 166.438 52.875 " fill="#f9d400" fill-rule="evenodd"/>
<path d="M 82.43 62.359 C 83.984 62.359 84.918 61.598 84.918 60.555 C 84.918 58.371 81.938 58.914 81.938 58.48 C 81.938 58.359 82.145 58.25 82.43 58.25 C 83.039 58.25 83.645 58.523 83.973 58.793 L 84.691 57.523 C 84.082 57.121 83.297 56.848 82.418 56.848 C 80.895 56.848 80.07 57.695 80.07 58.641 C 80.07 60.816 83.047 60.176 83.047 60.676 C 83.047 60.805 82.93 60.902 82.527 60.902 C 81.938 60.902 81.047 60.566 80.633 60.238 L 79.852 61.555 C 80.418 62.023 81.461 62.359 82.43 62.359 Z M 93.266 62.23 L 93.266 56.977 L 91.309 56.977 L 91.309 60.219 C 91.145 60.402 90.914 60.633 90.48 60.633 C 90.004 60.633 89.719 60.426 89.719 59.891 L 89.719 56.977 L 87.762 56.977 L 87.762 60.73 C 87.762 61.633 88.285 62.359 89.504 62.359 C 90.426 62.359 91.004 61.98 91.309 61.645 L 91.309 62.23 Z M 99.926 62.359 C 101.23 62.359 102.23 61.402 102.23 59.598 C 102.23 57.805 101.23 56.848 99.926 56.848 C 99.383 56.848 98.871 57.031 98.445 57.531 L 98.445 56.977 L 96.488 56.977 L 96.488 64.23 L 98.445 64.23 L 98.445 61.676 C 98.883 62.176 99.383 62.359 99.926 62.359 Z M 99.25 60.633 C 99 60.633 98.621 60.488 98.445 60.273 L 98.445 58.934 C 98.633 58.707 99 58.578 99.25 58.578 C 99.773 58.578 100.23 58.945 100.23 59.598 C 100.23 60.262 99.773 60.633 99.25 60.633 Z M 108.531 62.359 C 109.836 62.359 110.836 61.402 110.836 59.598 C 110.836 57.805 109.836 56.848 108.531 56.848 C 107.988 56.848 107.477 57.031 107.055 57.531 L 107.055 56.977 L 105.098 56.977 L 105.098 64.23 L 107.055 64.23 L 107.055 61.676 C 107.488 62.176 107.988 62.359 108.531 62.359 Z M 107.859 60.633 C 107.609 60.633 107.227 60.488 107.055 60.273 L 107.055 58.934 C 107.238 58.707 107.609 58.578 107.859 58.578 C 108.379 58.578 108.836 58.945 108.836 59.598 C 108.836 60.262 108.379 60.633 107.859 60.633 Z M 115.66 62.23 L 115.66 54.977 L 113.703 54.977 L 113.703 62.23 Z M 121.453 62.359 C 122.234 62.359 123.172 62.152 123.691 61.707 L 122.887 60.5 C 122.625 60.73 121.973 60.871 121.68 60.871 C 121.039 60.871 120.66 60.543 120.551 60.207 L 124.117 60.207 L 124.117 59.805 C 124.117 57.957 122.93 56.848 121.387 56.848 C 119.691 56.848 118.527 58.078 118.527 59.598 C 118.527 61.328 119.809 62.359 121.453 62.359 Z M 122.258 58.969 L 120.527 58.969 C 120.594 58.73 120.789 58.336 121.387 58.336 C 122.02 58.336 122.203 58.738 122.258 58.969 Z M 135.594 62.23 L 135.594 58.426 C 135.594 57.336 134.941 56.848 133.973 56.848 C 133.125 56.848 132.441 57.316 132.137 57.773 C 131.898 57.121 131.363 56.848 130.625 56.848 C 129.777 56.848 129.113 57.281 128.887 57.578 L 128.887 56.977 L 126.93 56.977 L 126.93 62.23 L 128.887 62.23 L 128.887 58.988 C 129.016 58.836 129.254 58.578 129.68 58.578 C 130.125 58.578 130.277 58.848 130.277 59.164 L 130.277 62.23 L 132.234 62.23 L 132.234 58.988 C 132.363 58.836 132.605 58.578 133.039 58.578 C 133.473 58.578 133.637 58.848 133.637 59.164 L 133.637 62.23 Z M 141.383 62.359 C 142.168 62.359 143.102 62.152 143.625 61.707 L 142.82 60.5 C 142.559 60.73 141.906 60.871 141.613 60.871 C 140.973 60.871 140.59 60.543 140.484 60.207 L 144.047 60.207 L 144.047 59.805 C 144.047 57.957 142.863 56.848 141.32 56.848 C 139.625 56.848 138.461 58.078 138.461 59.598 C 138.461 61.328 139.742 62.359 141.383 62.359 Z M 142.188 58.969 L 140.461 58.969 C 140.527 58.73 140.723 58.336 141.32 58.336 C 141.949 58.336 142.137 58.738 142.188 58.969 Z M 152.375 62.23 L 152.375 58.5 C 152.375 57.586 151.84 56.848 150.621 56.848 C 149.699 56.848 149.121 57.23 148.816 57.578 L 148.816 56.977 L 146.859 56.977 L 146.859 62.23 L 148.816 62.23 L 148.816 58.988 C 148.98 58.805 149.211 58.578 149.656 58.578 C 150.121 58.578 150.418 58.785 150.418 59.328 L 150.418 62.23 Z M 157.805 62.359 C 158.469 62.359 158.926 62.199 159.133 62.012 L 158.785 60.535 C 158.742 60.578 158.566 60.633 158.395 60.633 C 158.133 60.633 157.957 60.414 157.957 60.141 L 157.957 58.676 L 159.023 58.676 L 159.023 56.977 L 157.957 56.977 L 157.957 55.543 L 156 55.543 L 156 56.977 L 155.133 56.977 L 155.133 58.676 L 156 58.676 L 156 60.707 C 156 61.805 156.641 62.359 157.805 62.359 Z M 164.02 62.359 C 165.574 62.359 166.512 61.598 166.512 60.555 C 166.512 58.371 163.531 58.914 163.531 58.48 C 163.531 58.359 163.738 58.25 164.02 58.25 C 164.629 58.25 165.238 58.523 165.566 58.793 L 166.281 57.523 C 165.672 57.121 164.891 56.848 164.012 56.848 C 162.488 56.848 161.66 57.695 161.66 58.641 C 161.66 60.816 164.641 60.176 164.641 60.676 C 164.641 60.805 164.52 60.902 164.117 60.902 C 163.531 60.902 162.641 60.566 162.227 60.238 L 161.445 61.555 C 162.008 62.023 163.055 62.359 164.02 62.359 Z M 164.02 62.359 " fill="#2b3e5d" fill-rule="evenodd"/>
<path d="M 51.484 62.371 L 51.484 66.398 L 45.973 66.398 L 45.973 62.371 L 45.961 62.371 L 45.961 56.723 L 66.453 56.723 C 67.367 56.723 68.113 55.977 68.113 55.062 L 68.113 53.336 L 61.41 53.336 L 61.41 47.664 L 73.82 47.664 C 73.852 52.133 74.152 55.332 73.637 57.688 C 73.039 60.41 69.836 62.371 67.152 62.371 Z M 51.484 62.371 " fill="#2b3e5d" fill-rule="evenodd"/>
<path d="M 52.656 38.488 L 73.879 38.488 L 73.879 44.277 L 53.316 44.277 C 52.402 44.277 51.656 45.023 51.656 45.938 L 51.656 47.664 L 58.266 47.664 L 58.266 53.336 L 46.016 53.336 L 46.016 45.129 C 46.016 41.477 49.004 38.488 52.656 38.488 Z M 52.656 38.488 " fill="#f9d400" fill-rule="evenodd"/>
</g>
</g>
</svg>
