<?xml version="1.0" standalone="no"?>
<!DOCTYPE svg PUBLIC "-//W3C//DTD SVG 20010904//EN"
 "http://www.w3.org/TR/2001/REC-SVG-20010904/DTD/svg10.dtd">
<svg version="1.0" xmlns="http://www.w3.org/2000/svg"
 width="671.000000pt" height="159.000000pt" viewBox="0 0 671.000000 159.000000"
 preserveAspectRatio="xMidYMid meet">

<g transform="translate(0.000000,159.000000) scale(0.100000,-0.100000)"
fill="#000000" stroke="none">
<path d="M870 885 l0 -155 185 0 185 0 0 -66 c0 -59 -3 -68 -29 -95 l-29 -29
-586 0 -586 0 0 -265 0 -265 150 0 150 0 0 110 0 109 483 3 482 3 65 31 c127
61 189 139 209 264 12 72 14 337 4 443 l-6 67 -338 0 -339 0 0 -155z"/>
<path d="M3770 440 l0 -200 55 0 55 0 0 200 0 200 -55 0 -55 0 0 -200z"/>
<path d="M6138 603 c-13 -3 -18 -14 -18 -38 0 -27 -4 -34 -22 -37 -17 -2 -22
-11 -25 -45 -3 -40 -1 -43 21 -43 23 0 24 -3 28 -81 3 -75 5 -83 32 -106 25
-21 37 -24 78 -21 27 3 51 8 54 11 3 3 2 21 -1 40 -5 26 -13 37 -29 39 -18 3
-21 10 -24 60 -3 57 -3 57 25 55 27 -2 28 0 28 43 0 42 -2 45 -27 48 -25 3
-28 8 -28 38 0 20 -5 34 -12 35 -7 0 -24 2 -38 3 -14 2 -33 1 -42 -1z"/>
<path d="M1949 507 c-29 -19 -34 -30 -37 -66 -5 -65 17 -82 131 -106 15 -3 27
-10 27 -15 0 -15 -72 -11 -100 5 -35 20 -37 19 -56 -16 -21 -41 -7 -55 67 -71
71 -15 125 -4 161 32 59 59 19 141 -75 155 -26 4 -50 11 -53 16 -11 18 28 21
66 6 l39 -15 20 31 21 32 -38 17 c-54 25 -131 23 -173 -5z"/>
<path d="M2330 410 c0 -121 0 -122 29 -151 35 -35 79 -38 134 -10 29 15 37 16
37 5 0 -10 14 -14 50 -14 l50 0 0 145 0 145 -50 0 -50 0 0 -95 c0 -93 -1 -96
-26 -107 -47 -22 -58 -3 -64 103 l-5 94 -52 3 -53 3 0 -121z"/>
<path d="M2827 523 c-4 -3 -7 -93 -7 -200 l0 -193 50 0 50 0 0 65 c0 36 2 65
5 65 3 0 17 -7 31 -16 17 -12 37 -15 65 -11 76 10 115 74 107 175 -4 48 -10
60 -41 89 -29 26 -45 33 -77 33 -22 0 -52 -7 -65 -16 -23 -15 -25 -15 -25 0 0
12 -10 16 -43 16 -24 0 -47 -3 -50 -7z m177 -99 c22 -22 20 -67 -4 -89 -16
-15 -26 -17 -48 -9 -22 8 -28 16 -30 47 -2 21 2 45 9 53 15 19 54 18 73 -2z"/>
<path d="M3300 330 l0 -200 50 0 50 0 0 65 c0 69 3 73 34 50 47 -35 136 -2
162 60 29 71 11 162 -41 203 -33 26 -100 29 -133 6 -20 -14 -22 -14 -22 0 0
12 -11 16 -50 16 l-50 0 0 -200z m184 94 c43 -43 -5 -120 -59 -96 -20 9 -25
19 -25 50 0 21 5 43 12 50 17 17 54 15 72 -4z"/>
<path d="M4124 516 c-72 -32 -103 -129 -65 -205 35 -68 120 -96 213 -71 47 13
53 23 32 55 -15 23 -20 24 -68 19 -44 -5 -54 -3 -70 15 l-19 21 101 0 102 0 0
28 c-1 44 -36 110 -72 132 -38 23 -108 26 -154 6z m114 -88 c3 -15 -4 -18 -42
-18 -25 0 -46 4 -46 8 0 34 82 42 88 10z"/>
<path d="M4510 385 l0 -145 50 0 50 0 0 90 c0 86 1 91 24 102 48 21 56 8 56
-97 l0 -95 55 0 55 0 0 89 c0 96 9 115 52 109 22 -3 23 -7 26 -100 l3 -98 54
0 55 0 0 98 c0 111 -12 167 -40 182 -34 18 -97 12 -126 -13 l-27 -23 -23 23
c-27 27 -84 31 -128 8 -35 -18 -36 -18 -36 -2 0 10 -16 14 -50 16 l-50 1 0
-145z"/>
<path d="M5222 510 c-97 -59 -95 -201 3 -258 32 -18 51 -22 95 -19 30 2 68 9
83 16 l29 11 -21 33 c-12 17 -27 30 -33 28 -52 -17 -118 -6 -118 19 0 5 44 11
98 12 l97 3 -3 35 c-5 52 -30 97 -67 120 -43 27 -119 27 -163 0z m126 -82 c3
-15 -4 -18 -42 -18 -25 0 -46 4 -46 8 0 34 82 42 88 10z"/>
<path d="M5620 385 l0 -145 50 0 50 0 0 88 c0 93 8 112 45 112 37 0 45 -19 45
-112 l0 -88 55 0 55 0 0 111 c0 148 -17 178 -101 179 -25 0 -54 -7 -65 -15
-25 -19 -34 -19 -34 0 0 11 -12 15 -50 15 l-50 0 0 -145z"/>
<path d="M6488 515 c-33 -19 -48 -44 -48 -82 0 -56 28 -76 133 -98 15 -3 27
-10 27 -15 0 -15 -56 -12 -97 5 -39 16 -39 16 -65 -29 -8 -16 -7 -22 8 -33 45
-33 134 -42 187 -19 50 20 67 43 67 87 0 58 -32 82 -133 101 -10 2 -18 8 -18
13 0 17 39 17 73 1 17 -9 32 -15 33 -14 2 2 10 18 19 36 17 32 17 32 -11 44
-46 19 -144 20 -175 3z"/>
</g>
</svg>
